<svg viewBox="14.666407439999999 992.017344 2309.113104 531.6491040000001" xmlns:xlink="http://www.w3.org/1999/xlink" xmlns="http://www.w3.org/2000/svg" style="max-height: 500px" width="2309.113104" height="531.6491040000001"><defs><linearGradient y2="1157.38" x2="427.88501" y1="1520" x1="379.939" gradientUnits="userSpaceOnUse" id="gradient_0"><stop stop-color="#0D257C" offset="0"/><stop stop-color="#0E3DA5" offset="1"/></linearGradient></defs><path d="M310.538 1190.38C313.689 1188.02 316.854 1185.67 320.035 1183.33C387.642 1133.84 460.86 1108.59 545.38 1121.6C562.102 1123.84 599.106 1131.48 614.089 1138.1C620.237 1140.36 622.064 1142.24 627.172 1146.21C618.493 1144.89 602.383 1140.31 595.105 1140.21C525.98 1139.26 455.17 1181.79 444.217 1254.2C434.607 1317.72 482.404 1368.21 543.71 1375.76C582.234 1380.71 618.922 1370.38 650.142 1347.42C660.117 1339.96 669.704 1328.3 678.056 1321.93C674.317 1331.19 664.859 1355.22 658.563 1362.2C632.375 1415.36 562.269 1459.21 507.439 1477.28C388.992 1516.32 258.622 1507.78 146.49 1452.79C141.313 1450.25 125.215 1442.03 120.876 1438.64C90.5732 1419.68 58.8531 1396.3 35.9277 1368.72C136.313 1345.59 179.005 1307.96 252.916 1240.05C269.224 1225.06 292.806 1203.43 310.538 1190.38" fill="url(#gradient_0)"/><path d="M310.54 1190.39C313.69 1188.02 316.855 1185.67 320.036 1183.33C387.643 1133.84 460.862 1108.59 545.382 1121.61C562.103 1123.84 599.108 1131.49 614.09 1138.1C610.069 1139.94 579.997 1135.53 570.146 1135.75Q565.616 1135.86 561.093 1136.16Q556.571 1136.45 552.064 1136.92Q547.557 1137.39 543.071 1138.03Q538.586 1138.68 534.13 1139.51Q529.674 1140.33 525.254 1141.33Q520.833 1142.33 516.456 1143.5Q512.079 1144.67 507.751 1146.02Q503.423 1147.36 499.152 1148.88C345.418 1200.75 287.845 1349.33 154.707 1427.62C145.711 1432.92 131.242 1441.25 120.877 1438.64C90.574 1419.68 58.853 1396.3 35.927 1368.73C136.314 1345.59 179.006 1307.97 252.917 1240.06C269.225 1225.06 292.807 1203.43 310.539 1190.39" fill="#0DA9E8"/><path d="M310.54 1190.39C313.69 1188.02 316.855 1185.67 320.036 1183.33C387.643 1133.84 460.862 1108.59 545.382 1121.61L547.019 1124.53C541.729 1129.99 529.759 1126.22 522.633 1126.97C467.813 1132.71 422.797 1155.53 383.684 1194.35C379.901 1198.11 361.094 1215.99 357.862 1217.3C362.992 1208.56 383.931 1195.07 387.214 1183.83L386.019 1181.68C378.919 1180.85 372.159 1180.14 365.114 1178.84C362.824 1181.05 362.37 1181.8 359.196 1182.29C353.424 1178.18 358.722 1170.86 354.339 1167.28C343.883 1169.6 323.811 1187.4 312.787 1193.53C310.71 1191.73 311.422 1192.8 310.539 1190.39" fill="#1BC7F0"/><path d="M499.152 1148.88Q503.423 1147.36 507.751 1146.02Q512.079 1144.67 516.456 1143.5Q520.833 1142.33 525.253 1141.33Q529.674 1140.33 534.13 1139.51Q538.586 1138.68 543.071 1138.03Q547.557 1137.39 552.064 1136.92Q556.571 1136.45 561.093 1136.16Q565.616 1135.86 570.146 1135.75C579.997 1135.53 610.069 1139.94 614.09 1138.1C620.238 1140.36 622.066 1142.24 627.174 1146.21C618.494 1144.89 602.384 1140.31 595.106 1140.21C525.982 1139.26 455.172 1181.79 444.219 1254.2C434.609 1317.73 482.406 1368.21 543.712 1375.77C582.236 1380.71 618.924 1370.39 650.144 1347.42C660.119 1339.96 669.706 1328.3 678.058 1321.93C674.319 1331.19 664.861 1355.22 658.565 1362.21C655.865 1363.15 641.689 1374.87 638.69 1377.63C563.433 1446.84 434.058 1425.51 407.043 1319.7C391.326 1258.14 423.253 1198.37 474.815 1163.82C480.213 1160.2 499.214 1155.07 500.762 1152.52L497.732 1152.7L499.152 1148.88Z" fill="#0C4FB7"/><defs><linearGradient y2="1022.06" x2="366.42099" y1="1373.63" x1="315.25699" gradientUnits="userSpaceOnUse" id="gradient_1"><stop stop-color="#13ADED" offset="0"/><stop stop-color="#35E8F9" offset="1"/></linearGradient></defs><path d="M36.3341 1323.11C39.8522 1303.51 53.4973 1272.91 61.9191 1254.21C106.574 1155.03 201.421 1076.58 302.876 1039.84C379.152 1012.2 472.07 1011.05 546.985 1045.39C586.461 1063.48 637.734 1108.49 652.876 1150.03C645.043 1142.78 636.852 1135.84 629.107 1128.57C615.789 1121.04 604.341 1113.51 590.259 1107.05C494.731 1063.12 395.757 1091.9 313.234 1149.12C228.765 1207.69 166.141 1300.49 61.5561 1324.29C54.243 1325.94 40.9006 1331.17 35.2906 1328.39C35.073 1325.47 34.9365 1325.64 36.3341 1323.11" fill="url(#gradient_1)"/><path d="M36.334 1323.11L38.338 1324.73C53.717 1313.3 73.224 1304.09 89.734 1293.94C164.372 1248.07 217.015 1176.89 290.612 1129.9C370.74 1078.73 458.705 1058.88 552.664 1079.19L553.934 1077.68L555.657 1079.02L548.468 1075.35L548.265 1074.15C553.995 1073.41 562.827 1078.13 567.901 1080.88C586.378 1090.9 622.551 1106.93 629.109 1128.57C615.791 1121.04 604.343 1113.52 590.261 1107.05C494.732 1063.12 395.759 1091.91 313.235 1149.12C228.765 1207.69 166.142 1300.49 61.556 1324.3C54.243 1325.95 40.9 1331.17 35.291 1328.39C35.072 1325.47 34.937 1325.64 36.334 1323.11" fill="#0DA9E8"/><path d="M1990.06 1167.54C2097.48 1157.1 2147.17 1244.4 2094.78 1336.8C2075.47 1370.84 2041.92 1390.17 2004.41 1399.37C1997.82 1400.12 1990.99 1401.16 1984.28 1401.39C1862.58 1405.63 1845.7 1266.49 1923.51 1197.03C1944.41 1178.39 1962.7 1173.83 1990.06 1167.54M1992.31 1354.75C2016.82 1348.79 2035.94 1339.78 2049.5 1317.26C2067.67 1287.08 2070.39 1239 2034.9 1219.96C2025.92 1215.15 2011.51 1211.54 2001.26 1212.15C1985.08 1215.25 1974.09 1218.1 1960.73 1228.39C1936.39 1247.14 1923.23 1282.66 1928.93 1312.88Q1929.15 1314.09 1929.43 1315.29Q1929.71 1316.49 1930.04 1317.67Q1930.38 1318.86 1930.78 1320.02Q1931.17 1321.19 1931.63 1322.33Q1932.08 1323.48 1932.59 1324.6Q1933.1 1325.72 1933.67 1326.81Q1934.23 1327.91 1934.85 1328.97Q1935.47 1330.04 1936.14 1331.07Q1936.81 1332.1 1937.53 1333.1Q1938.25 1334.1 1939.02 1335.06Q1939.79 1336.02 1940.61 1336.94Q1941.43 1337.86 1942.29 1338.74Q1943.15 1339.62 1944.05 1340.46Q1944.96 1341.29 1945.9 1342.08Q1946.85 1342.87 1947.83 1343.61Q1948.81 1344.35 1949.83 1345.05C1962.89 1353.87 1977.09 1355.47 1992.31 1354.75" fill="#1E3065"/><path d="M1074.58 1170.85C1089.57 1170.43 1107.11 1170.99 1122.3 1171.12Q1110.89 1195.3 1098.96 1219.22C1087.19 1244.22 1074.35 1268.42 1062.58 1293.18C1046.08 1327.89 1029.93 1362.01 1012.63 1396.4Q986.134 1396.77 959.632 1396.4C956.47 1380.65 954.122 1356.81 952 1340.42Q946.184 1293.48 938.715 1246.78C917.425 1288.63 897.961 1331.38 876.935 1373.36C872.95 1381.32 869.362 1389.54 864.601 1397.06C848.095 1396.5 830.506 1396.74 813.905 1396.72C809.716 1380.3 779.943 1177.99 781.287 1172.73L783.903 1171.39L828.983 1171.49C833.878 1220.99 843.573 1279.89 851.992 1329.15C878.674 1276.98 902.394 1224.64 928.572 1172.37Q950.742 1171.52 972.922 1172.02Q984.936 1251.2 995.492 1330.59C1019.28 1277.88 1049.68 1225.21 1074.58 1170.85" fill="#0DA9E8"/><path d="M1705.71 1169.91C1746.39 1169.18 1813.54 1161.84 1844.71 1191.41C1856.99 1203.05 1866.24 1224.38 1865.47 1241.9C1862.47 1310.09 1807.49 1334.55 1746.23 1335.01C1734.79 1335.07 1723.08 1334.82 1711.6 1334.71C1707.97 1354.8 1702.87 1377.94 1700.35 1397.88C1683.09 1397.1 1665.97 1397.92 1648.58 1397.19C1651.86 1370.03 1660.68 1328.85 1666.26 1301.53Q1678.28 1242.59 1689.27 1183.44C1694.63 1179.38 1700.24 1174.23 1705.71 1169.91M1732.76 1213.97C1728.5 1239.14 1724.14 1265.78 1718.72 1290.63C1732.25 1290.61 1764.91 1291.01 1777.52 1288.28C1810.16 1280.06 1831.81 1240.31 1796.87 1218.66C1786.07 1211.97 1767.31 1213.15 1754.58 1213.46C1747.54 1213.61 1739.72 1213.61 1732.76 1213.97" fill="#1E3065"/><path d="M2222.99 1167.6C2263.23 1164.64 2282.59 1168.4 2318.65 1186.69C2313.89 1199.76 2304.08 1215.7 2297.5 1228.46C2278.96 1216.77 2255.36 1209.49 2232.67 1211.73C2220.44 1211.39 2187.94 1222.27 2194.42 1239.6C2203.43 1263.67 2258.92 1266.16 2279.39 1282.04C2309.79 1305.62 2305.84 1339.13 2285.19 1366.23C2266.16 1391.2 2238.14 1398.4 2208.6 1401.75C2188.24 1402.17 2122.52 1394.55 2114.9 1373.26C2115.91 1365.42 2132.86 1342.74 2139 1336.77C2165.42 1353.09 2190.16 1361.49 2221.59 1356.59C2233.76 1354.69 2251.41 1344.71 2246.88 1330.16C2241.44 1312.72 2205.88 1309.98 2191.34 1303.37C2183.32 1299.72 2175.01 1297.45 2167.64 1292.06C2134.49 1272.85 2135.62 1231.67 2154.6 1202.51C2169.91 1178.99 2196.59 1172.9 2222.99 1167.6" fill="#1E3065"/><path d="M1542.29 1224.58C1570.04 1221.42 1598.73 1227.72 1616.21 1251.57C1632.43 1273.7 1630.68 1298.62 1627.05 1324.26C1607.99 1326.22 1508.31 1321.9 1501.3 1326.29C1496 1335.23 1507.26 1345.07 1513.08 1351.06C1526.3 1364.69 1547.58 1364.16 1563.83 1356.89C1570.92 1353.71 1579.83 1345.91 1587.47 1345.35C1592.24 1347.85 1591.21 1347.99 1594.62 1353.22C1597.4 1357.44 1610.95 1370.72 1606.51 1374.87C1578.28 1401.26 1521.35 1408.06 1489.28 1387.36C1447.91 1360.65 1448.86 1304.09 1473.53 1267.45C1490.81 1241.77 1513.15 1230.46 1542.29 1224.58M1505.32 1295.86C1520.01 1296.12 1534.72 1296.18 1549.43 1296.06C1561.24 1295.89 1579.11 1296.13 1590.41 1295.29C1583.18 1271.43 1574.2 1260.21 1547.84 1258.96C1525.25 1263.77 1513.26 1273.95 1505.32 1295.86" fill="#0DA9E8"/><path d="M1171.35 1224.45C1296.06 1219.01 1249.66 1317.88 1240.07 1396.16C1226.61 1396.62 1212.11 1396.54 1198.57 1396.7C1198.87 1390.8 1198.93 1384.92 1199.04 1379.01C1169.88 1402.64 1134.91 1408.53 1104.07 1383.13C1087.35 1364.19 1090.69 1334.48 1107.36 1317.37C1130.83 1293.3 1169.06 1296.04 1199.77 1296.33C1205.16 1296.4 1207.07 1295.46 1210.5 1291.58C1211.99 1284.41 1208.5 1279.08 1205.32 1272.5C1205.06 1272.31 1204.82 1272.11 1204.56 1271.92L1203.28 1270.98C1180.49 1253.89 1151.86 1264.39 1130.22 1277.67Q1122.47 1260.29 1114.14 1243.17C1131.47 1231.49 1151.11 1227.7 1171.35 1224.45M1168.16 1365.67C1193.49 1361.55 1200.15 1349.66 1206.93 1327.15C1195.96 1326.55 1184.37 1325.7 1173.44 1325.94C1163.37 1326.89 1148.35 1327.88 1142.59 1336.81C1127.89 1359.61 1150.18 1367.56 1168.16 1365.67" fill="#0DA9E8"/><path d="M1282.53 1226.28C1297.51 1226.22 1311.44 1226.26 1326.41 1226.87C1336.61 1262.73 1344.48 1307.31 1352.54 1344.11C1377.83 1304.85 1399.07 1267.99 1421.71 1227.16C1436.77 1227.3 1450.73 1227.28 1465.75 1228.58C1458.79 1240.83 1451.98 1254.02 1445.31 1266.49C1423.01 1308.7 1395.19 1355 1370.29 1395.62C1355.62 1396.85 1333.64 1396.78 1318.9 1396.46C1308.46 1340.18 1292.05 1280.91 1282.53 1226.28" fill="#0DA9E8"/></svg>