<svg viewBox="637.413672 859.7836940000001 1422.797978 1094.89821" xmlns="http://www.w3.org/2000/svg" style="max-height: 500px" width="1422.797978" height="1094.89821"><defs><linearGradient gradientUnits="userSpaceOnUse" y2="988.049" y1="1831.506" x2="1555.988" x1="1210.52" id="a"><stop stop-color="#0c0355" offset="0"/><stop stop-color="#00348e" offset="1"/></linearGradient></defs><path transform="scale(1.08555)" d="M1094.88 1207.31c6.08-7.33 29.96-26.5 37.95-33 54.7-44.51 104.47-77.18 168.62-106.16 137.81-62.81 294.94-68.243 436.76-15.11l-.78 1.72-2.01.62-4.2 2.69c6.65 2.52 4.73.86 9.1 5.98-137.06-18.71-300.94 76.32-319.54 221.2a206.07 206.07 0 0 0 41.82 153.25c92.77 117.63 272.09 106.86 376.99 16.97 14.14-12.12 29.77-29.88 43.34-39.93-9.49 22.43-17.64 42.55-29.51 63.96-60.08 108.34-163.93 188.15-278.17 233.65-216.58 86.25-479.17 79.71-692.946-10.72a828.8 828.8 0 0 1-169.637-96.44c-8.628-6.38-27.446-20.56-34.862-28.02-16.749-12.35-55.116-52.48-66.266-68.97 152.926-27.22 267.54-107.87 380.476-209.75l64.415-58.71c10.9-9.96 26.42-25.42 38.45-33.23" fill="url(#a)"/><path d="m1236.496 1275.434-.89 1.846c-13.288 27.193-51.032 51.27-56.243 75.413l1.455 1.672c14.904-1.976 21.049 15.36 28.474 14.568l2.345-4.82 2.55-.293c3.257 2.953 3.398 3.571 5.667 7.219 6.655 1.639 11.583-.608 15.61 2.062.771 6.275 1.39 3.55-.868 8.63-8.532 5.309-17.532.326-15.892 15.697.857 8.099-3.083 9.857-8.804 14.883l-.12 1.9 3.148 3.224c-.922 9.846-16.978 13.016-15.295 26.553.792 6.383-2.334 9.368-7.034 13.363-.977 4.657-.684 4.679 3.245 8.087l-.488 2.736c-7.512-1.02.76-4.733-7.327-3.333-2.454 6.611.097 8.5 3.701 14.33-.271 6.513-11.832 22.72-11.528 27.952.532 8.87 13.352 16.978 7.837 26.184l1.846 3.387-12.506 12.95c-74.827 81.71-159.153 161.118-257.835 212.573-19.323 10.074-44.485 22.785-65.513 27.692-21.543-10.421-32.546-19.529-50.934-32.089-13.14-8.977-53.414-41.522-65.306-44.855-18.182-13.406-59.831-56.97-71.935-74.87 166.009-29.549 290.428-117.098 413.026-227.694l69.926-63.733c11.832-10.812 28.68-27.595 41.739-36.073l2.095 2.085c14.308-9.477 30.765-26.575 45.854-37.246" fill="#017ccc"/><path d="m1186.04 1533.307 1.845 3.387-12.506 12.95-.12-4.103c2.14-4.798 6.872-8.522 10.78-12.234" fill="#029ad8"/><path d="M1188.547 1310.595c6.6-7.957 32.523-28.767 41.197-35.823 59.38-48.318 113.407-83.783 183.045-115.242 149.6-68.183 320.172-74.081 474.125-16.402l-.847 1.867-2.182.673c-17.108-.76-34.249-2.302-51.238-2.736-251.717-6.296-452.316 175.555-607.995 352.858-11.995 13.656-24.392 27.606-36.767 40.904l-1.846-3.387c5.515-9.206-7.305-17.315-7.837-26.184-.304-5.232 11.257-21.44 11.528-27.953-3.604-5.829-6.155-7.718-3.701-14.329 8.087-1.4-.185 2.312 7.327 3.333l.488-2.736c-3.93-3.408-4.222-3.43-3.245-8.087 4.7-3.995 7.826-6.98 7.034-13.363-1.683-13.537 14.373-16.707 15.295-26.553l-3.148-3.224.12-1.9c5.72-5.026 9.661-6.784 8.804-14.883-1.64-15.37 7.36-10.388 15.892-15.697 2.258-5.08 1.64-2.355.868-8.63-4.027-2.67-8.955-.423-15.61-2.062-2.269-3.648-2.41-4.266-5.666-7.22l-2.551.294-2.345 4.82c-7.425.792-13.57-16.544-28.474-14.568l-1.455-1.672c5.21-24.143 42.955-48.22 56.243-75.413l.89-1.846c-15.09 10.671-31.546 27.769-45.854 37.246z" fill="#03b3e6"/><defs><linearGradient gradientUnits="userSpaceOnUse" y2="834.347" y1="1363.932" x2="1173.966" x1="1217.3" id="b"><stop stop-color="#0195d0" offset="0"/><stop stop-color="#01e3f3" offset="1"/></linearGradient></defs><path transform="scale(1.08555)" d="M617.731 1406.05c2.173-14.45 14.909-48.77 20.297-63.03 57.663-152.72 167.94-291.05 302.185-383.723C1094.69 852.654 1295.3 792.672 1482.49 826.36c102.15 18.583 196.37 63.1 267.06 140.568 16.79 18.4 29.34 36.302 43.41 56.732 9.86 15.44 21.9 32.66 27.15 50.1-2.73-2.91-6.81-6.94-9.05-10.08l-.96-.68c-8.23-5.99-16.98-14.5-25-21.19a296 296 0 0 0-36.4-25.59c-21.05-12.75-38.53-19.381-60.76-28.34-81.6-32.89-169.48-37.453-255.92-24.234-104.54 15.987-216.37 70.674-300.57 134.284-139.235 105.19-254.785 253.37-423.146 315.47-27.4 10.1-69.955 21.25-99.382 21.48 2.201-7.68 5.827-21.6 8.809-28.83" fill="url(#b)"/><defs><linearGradient gradientUnits="userSpaceOnUse" y2="1034.624" y1="1233.928" x2="1109.218" x1="1191.857" id="c"><stop stop-color="#027bb7" offset="0"/><stop stop-color="#0195d0" offset="1"/></linearGradient></defs><path transform="scale(1.08555)" d="m617.731 1406.05.765 9.61c8.486 1.18 36.497-15.42 45.504-20.34 84.749-46.27 157.649-105.66 227.942-171.31 37.229-34.77 79.866-80.29 120.998-109.76 71.11-50.94 161.03-108.93 242.57-141.735 142.76-57.427 287.46-71.345 430.99-11.629 10.02 5.597 20.21 10.675 30.44 15.859 13.83 8.447 25.61 15.187 37.58 26.285l-.85 1.38c-4.44.81-6.29.29-8.91 2.87 2.15 5.47 31.99 24.95 38.39 28.47 4.31.35 4.61.66 8.77-.84 2.34-4.55 1.32-5.24 1.04-11.25 9.86 15.44 21.9 32.66 27.15 50.1-2.73-2.91-6.81-6.94-9.05-10.08l-.96-.68c-8.23-5.99-16.98-14.5-25-21.19a296 296 0 0 0-36.4-25.59c-21.05-12.75-38.53-19.381-60.76-28.34-81.6-32.89-169.48-37.453-255.92-24.234-104.54 15.987-216.37 70.674-300.57 134.284-139.235 105.19-254.785 253.37-423.146 315.47-27.4 10.1-69.955 21.25-99.382 21.48 2.201-7.68 5.827-21.6 8.809-28.83" fill="url(#c)"/><path d="M1946.348 1111.234c10.703 16.76 23.773 35.454 29.472 54.386-2.963-3.159-7.392-7.534-9.824-10.942-4.624-7.827-23.111-24.186-30.298-30.32 4.68.38 5.005.717 9.52-.912 2.54-4.939 1.434-5.688 1.13-12.212" fill="#03b3e6"/><path d="M1830.78 1043.09c4.733-6.935-1.552-5.278 3.724-7.012 7.12 3.303 23.697 11.163 29.103 16.439-.022 2.278-.228 5.696.217 7.788-11.105-5.627-22.167-11.14-33.044-17.215" fill="#03b3e6"/><path d="M1886.914 1143.128c8.62 2.92 22.08 7.316 29.093 12.56l.586 1.986c-3.094.988-24.143-1.715-27.389-2.595-4.743-5.558-2.66-3.756-9.878-6.491l4.56-2.92 2.181-.673z" fill-opacity=".961" fill="#00348f"/></svg>