<svg id="visual" viewBox="0 0 960 540" width="960" height="540" xmlns="http://www.w3.org/2000/svg" xmlns:xlink="http://www.w3.org/1999/xlink" version="1.1"><rect x="0" y="0" width="960" height="540" fill="#002233"></rect><path d="M334 0L342 15C350 30 366 60 402.7 90C439.3 120 496.7 150 513.2 180C529.7 210 505.3 240 487.5 270C469.7 300 458.3 330 477.2 360C496 390 545 420 569.8 450C594.7 480 595.3 510 595.7 525L596 540L0 540L0 525C0 510 0 480 0 450C0 420 0 390 0 360C0 330 0 300 0 270C0 240 0 210 0 180C0 150 0 120 0 90C0 60 0 30 0 15L0 0Z" fill="#0066FF" stroke-linecap="round" stroke-linejoin="miter"></path></svg>